<svg version="1.1" id="katman_1" xmlns:x="ns_extend;" xmlns:i="ns_ai;" xmlns:graph="ns_graphs;" xmlns="http://www.w3.org/2000/svg" xmlns:xlink="http://www.w3.org/1999/xlink" x="0px" y="0px" viewBox="0 0 681.3 179.3" style="enable-background:new 0 0 681.3 179.3;" xml:space="preserve">
 <style type="text/css">
  .st0{fill:#FFFFFF;}
 </style>
 <metadata>
  <sfw xmlns="ns_sfw;">
   <slices>
   </slices>
   <sliceSourceBounds bottomLeftOrigin="true" height="179.3" width="681.3" x="82.3" y="206.8">
   </sliceSourceBounds>
  </sfw>
 </metadata>
 <path class="st0" d="M461,37.1c-12.1,0-21.4,4.3-30.1,13.3V39.2h-23.7v110.2h25.5V85.5c0-14.6,8.7-23.9,21.9-23.9
	c2.4,0,4.5,0.3,6,0.6l17.7-23.3C471.6,37.6,465.5,37.1,461,37.1L461,37.1z M681.3,39.1h-29.5l-27.2,36l-27.2-36H568l41.6,55.6
	L568,149.4h30l26.5-34.9l26.5,34.9h30.4l-41.8-54.6L681.3,39.1L681.3,39.1z M144.9,14.3c-8.7,11.6-10.8,15.5-19.2,15.5H0v149.4h49.3
	c11.1,0,21.9-5.4,28.9-14.3c9-12,10.2-15.5,18.9-15.5H223V0h-49.6C162.3,0,151.5,5.4,144.9,14.3L144.9,14.3z M183.9,110.9h-52.6
	c-11.4,0-21.9,4.8-28.9,14c-9,12-10.8,15.5-19.2,15.5H38.8V68.7h52.6c11.4,0,21.9-5.4,28.9-14.3c9-11.6,11.4-15.2,19.5-15.2h44.2
	V110.9z M372.7,74.1c11.1-6.3,18.9-17.3,18.9-32C391.6,20.6,375.1,0,351,0h-72.1v149.4H351c26.1,0,44.2-18.5,44.2-41.8
	C395.2,93.8,388.9,81.9,372.7,74.1z M304.5,23.3h44.5c11.1,0,17.7,10.5,17.7,19.7c0,11.4-9.9,19.1-19.2,19.1h-43
	C304.5,62.1,304.5,23.3,304.5,23.3z M347.4,126.1h-43V85.4h44.5c11.4,0,20.7,9.9,20.7,20C369.7,116.8,358,126.1,347.4,126.1z">
 </path>
 <path class="st0" d="M542.5,117.7c-4.2,6.6-12.3,10.5-21.3,10.5c-14.1,0-25.8-9.6-25.8-24.2h76.3c1.2-4.5,1.5-6.6,1.5-10.5
	c0-33.5-20.7-56.5-52-56.5c-30.7,0-52.3,21.8-52.3,57.4c0,34.7,20.7,57.1,52.9,57.1c22.5,0,42.4-11,48.1-33.8
	C569.8,117.7,542.5,117.7,542.5,117.7z M521.1,60.4c14.1,0,25,9,24.7,22.4h-50.2C495.6,69.6,507,60.4,521.1,60.4z">
 </path>
</svg>