<?xml version="1.0" encoding="UTF-8"?>
<svg id="Layer_1" xmlns="http://www.w3.org/2000/svg" xmlns:xlink="http://www.w3.org/1999/xlink" version="1.1" viewBox="0 0 966 209">
  <!-- Generator: Adobe Illustrator 29.8.2, SVG Export Plug-In . SVG Version: 2.1.1 Build 3)  -->
  <defs>
    <style>
      .st0 {
        fill: url(#radial-gradient);
      }

      .st1 {
        fill: #fff;
      }
    </style>
    <radialGradient id="radial-gradient" cx="126.4" cy="105.5" fx="126.4" fy="105.5" r="83.5" gradientUnits="userSpaceOnUse">
      <stop offset="0" stop-color="#a7f1bb"/>
      <stop offset=".4" stop-color="#60e684"/>
      <stop offset=".8" stop-color="#3bcc77"/>
      <stop offset="1" stop-color="#29bf71"/>
    </radialGradient>
  </defs>
  <path class="st1" d="M289.9,112.2h-10.6c-.5,0-1,.3-1.1.8-2,7-7.4,10.7-15.6,10.7s-17.6-8.1-17.6-21.1,6.7-20.8,17.6-20.8,13.6,3.9,15.6,10.7c.1.5.6.8,1.1.8h10.6c.4,0,.7-.2.9-.4.2-.3.3-.7.2-1-3.2-13.2-13.5-20.8-28.3-20.8s-29.9,12.6-29.9,31.5,12,31.7,29.9,31.7,25-7.7,28.3-20.6c0-.1,0-.3,0-.4,0-.6-.5-1.2-1.2-1.2Z"/>
  <path class="st1" d="M329.1,71.1c-7.6,0-14,2.6-18.3,7.2v-25.6c0-.6-.5-1.2-1.2-1.2h-9.8c-.6,0-1.2.5-1.2,1.2v79.4c0,.6.5,1.2,1.2,1.2h9.8c.6,0,1.2-.5,1.2-1.2v-32.5c0-11.2,5.7-17.7,15.7-17.7s15.3,6.2,15.3,17v33.2c0,.6.5,1.2,1.2,1.2h9.7c.6,0,1.2-.5,1.2-1.2v-34.6c0-16-9.7-26.4-24.7-26.4Z"/>
  <path class="st1" d="M394.2,71.1c-7.6,0-13.8,2.7-17.8,7.8v-5.5c0-.6-.5-1.2-1.2-1.2h-9.8c-.6,0-1.2.5-1.2,1.2v58.8c0,.6.5,1.2,1.2,1.2h9.8c.6,0,1.2-.5,1.2-1.2s0-.2,0-.4v-31.6c0-11.4,4.9-16.6,15.3-16.6h2.6c.6,0,1.2-.5,1.2-1.2v-10.1c0-.6-.5-1.2-1.2-1.2Z"/>
  <path class="st1" d="M446.3,102.7c0,14.3-9.6,20.7-19.1,20.7s-9.4-1.8-12.6-5c-3.6-3.7-5.6-9.1-5.5-15.8,0-9.5,4.8-20.6,18.5-20.6s18.7,6.4,18.7,20.6ZM427.7,71.2c-18.2,0-31,12.9-31,31.5s12.5,31.7,30.5,31.7,31.3-13.3,31.4-31.7c0-18.5-12.7-31.5-31-31.5Z"/>
  <path class="st1" d="M496.1,71.2c-7.3,0-13.5,2.6-17.7,7.1v-4.9c0-.6-.5-1.2-1.2-1.2h-9.8c-.6,0-1.2.5-1.2,1.2v58.8c0,.6.5,1.2,1.2,1.2h9.8c.6,0,1.2-.5,1.2-1.2v-32.5c0-11.2,5.7-17.7,15.7-17.7s15.3,6.2,15.3,17v33.3c0,.6.5,1.2,1.2,1.2h9.7c.6,0,1.2-.5,1.2-1.2v-34.6c0-16.3-9.7-26.4-25.3-26.4Z"/>
  <path class="st1" d="M559.9,82.1c9.3,0,18.7,6.4,18.7,20.6s-9.6,20.7-19.1,20.7-9.4-1.8-12.6-5c-3.6-3.7-5.6-9.1-5.5-15.8,0-9.5,4.8-20.6,18.5-20.6ZM560,71.2c-18.2,0-31,12.9-31,31.5s12.5,31.7,30.5,31.7,31.3-13.3,31.4-31.7c0-18.5-12.7-31.5-31-31.5Z"/>
  <path class="st1" d="M623.6,98c-7.4-2-13.7-3.8-13.7-9.2s4.1-7,10.3-7,11.2,3.5,11.6,9.1c0,.6.6,1.1,1.2,1.1h9.8c.3,0,.6-.1.9-.4s.3-.6.3-.9c-.7-12.1-9.7-19.6-23.4-19.6s-22.8,7.4-22.8,17.6,12,16.5,21.6,19c7.1,1.9,13.2,3.5,13.2,8.3s-4.3,7.5-10.9,7.5-12.2-3.5-12.7-8.9c0-.6-.6-1.1-1.2-1.1h-10.1c-.3,0-.6.1-.9.4-.2.2-.3.6-.3.9.7,11.4,11.1,19.4,25.3,19.4s22.7-7.5,22.7-18.2c-.3-12.5-11.7-15.6-20.9-18.2Z"/>
  <path class="st1" d="M701.9,102.6c0,12.3-7.7,20.8-18.8,20.8s-18.8-6.5-18.8-20.7,6.5-20.6,18.8-20.6,18.8,8.4,18.8,20.5ZM685.1,71.2c-9.8,0-16.8,4.4-20.9,9.3v-7.1c0-.6-.5-1.2-1.2-1.2h-9.8c-.6,0-1.2.5-1.2,1.2v86.7c0,.6.5,1.2,1.2,1.2h9.8c.6,0,1.2-.5,1.2-1.2v-35.1c4.2,4.9,11.3,9.4,20.9,9.4,16.9,0,29.1-13.4,29.1-31.8s-12-31.3-29.1-31.3Z"/>
  <path class="st1" d="M752.3,71.1c-7.6,0-14,2.6-18.3,7.2v-25.6c0-.6-.5-1.2-1.2-1.2h-9.8c-.6,0-1.2.5-1.2,1.2v79.4c0,.6.5,1.2,1.2,1.2h9.8c.6,0,1.2-.5,1.2-1.2v-32.5c0-11.2,5.7-17.7,15.7-17.7s15.3,6.2,15.3,17v33.2c0,.6.5,1.2,1.2,1.2h9.7c.6,0,1.2-.5,1.2-1.2v-34.6c0-16-9.7-26.4-24.7-26.4Z"/>
  <path class="st1" d="M814.5,81.9c5.2,0,9.9,1.8,13.1,5,2.7,2.7,4.2,6.3,4.4,10.5h-34.7c1.4-9.4,8.1-15.5,17.2-15.5ZM815,71.2c-18.1,0-30.3,12.6-30.3,31.5s12.2,31.7,30.3,31.7,24.8-7.7,28.3-20c0-.4,0-.7-.2-1-.2-.3-.6-.5-.9-.5h-10.6c-.5,0-.9.3-1.1.8-2.2,6.4-7.8,10.1-15.5,10.1s-16.7-6.3-17.8-16.1h45.8c.6,0,1.1-.5,1.2-1,.2-2.2.3-4,.3-6,0-17.3-12.1-29.3-29.5-29.3Z"/>
  <path class="st1" d="M882,71.1c-7.6,0-13.8,2.7-17.8,7.8v-5.5c0-.6-.5-1.2-1.2-1.2h-9.8c-.6,0-1.2.5-1.2,1.2v58.8c0,.6.5,1.2,1.2,1.2h9.8c.6,0,1.2-.5,1.2-1.2s0-.2,0-.4v-31.6c0-11.4,4.9-16.6,15.3-16.6h2.6c.6,0,1.2-.5,1.2-1.2v-10.1c0-.6-.5-1.2-1.2-1.2Z"/>
  <path class="st1" d="M914.5,81.9c5.2,0,9.9,1.8,13.1,5,2.7,2.7,4.2,6.3,4.4,10.5h-34.7c1.4-9.4,8-15.5,17.2-15.5ZM914.9,71.2c-18.1,0-30.3,12.6-30.3,31.5s12.2,31.7,30.3,31.7,24.8-7.7,28.3-20c0-.4,0-.7-.2-1-.2-.3-.6-.5-.9-.5h-10.6c-.5,0-.9.3-1.1.8-2.2,6.4-7.8,10.1-15.5,10.1s-16.7-6.3-17.8-16.1h45.8c.6,0,1.1-.5,1.2-1,.2-2.2.3-3.9.3-6,0-17.3-12.1-29.3-29.5-29.3Z"/>
  <path class="st0" d="M171.5,144.4c0,0,0-.1.1-.2,0,0,.1-.2.2-.3,0-.1.2-.3.3-.4.1-.2.2-.4.4-.6,0-.1.2-.3.2-.4,0,0,0,0,0,0,0-.1.1-.2.2-.3,0,0,0-.2.1-.2,0,0,0,0,0-.1,0,0,0,0,0,0,0,0,0-.2.1-.2,0,0,0-.1,0-.2.1-.2.2-.4.3-.7.1-.3.3-.5.4-.8,0,0,0-.1,0-.1,0-.1.1-.2.2-.4,0-.1.1-.3.2-.4,0,0,0,0,0,0,0,0,0,0,0,0,0,0,0-.1,0-.2,0-.1,0-.2.1-.3.1-.2.2-.5.3-.7,0-.2.2-.4.3-.6,0-.2.2-.4.3-.6,0,0,0,0,0,0,0,0,0-.1,0-.2,0-.1,0-.2.1-.3,0,0,0,0,0,0,0,0,0-.1,0-.2,0-.1.1-.3.2-.4,0-.2.2-.4.2-.6,0,0,0,0,0,0,0-.2.1-.3.2-.5,0-.1,0-.2.1-.3,0-.2.1-.3.2-.5,0-.2.1-.3.2-.5,0,0,0-.2.1-.3,0,0,0,0,0-.1,0,0,0,0,0-.1,0,0,0-.1,0-.2,0-.1,0-.2.1-.3,0-.2.1-.4.2-.6,0,0,0,0,0,0,0-.3.2-.5.3-.8,0-.2.1-.4.2-.6,0,0,0,0,0,0,0,0,0-.1,0-.2,0,0,0-.2,0-.3,0,0,0,0,0,0,0,0,0,0,0-.1,0-.2,0-.3.1-.5,0-.2,0-.3.1-.5,0-.1,0-.3.1-.4,0-.1,0-.3.1-.4,0-.1,0-.3.1-.4,0-.2.1-.4.2-.5,0-.1,0-.2.1-.4,0,0,0,0,0-.1,0,0,0,0,0,0,0,0,0,0,0-.1,0-.2,0-.3.1-.5,0-.2,0-.3.1-.5,0,0,0,0,0,0,0,0,0,0,0,0,0,0,0,0,0,0,0,0,0-.2,0-.3,0-.2,0-.3.1-.5,0-.3.2-.6.2-.9,0-.1,0-.2,0-.4,0,0,0,0,0,0,0,0,0,0,0,0,0,0,0-.1,0-.2,0-.1,0-.2,0-.3,0,0,0,0,0,0,0,0,0,0,0-.1,0,0,0-.2,0-.2.2-.8.3-1.5.5-2.3,0,0,0,0,0-.1,0,0,0,0,0,0,0,0,0,0,0,0,0,0,0,0,0,0,0,0,0,0,0,0,0,0,0,0,0,0,0,0,0,0,0,0,0,0,0,0,0,0,0,0,0,0,0,0-1.3,2-2.8,3.9-4.6,5.6,0,0-.2.2-.3.3-.4.4-.8.8-1.3,1.1-.1,0-.2.2-.3.3-.3.3-.7.5-1,.8-.2.1-.3.2-.5.4-.2.2-.5.3-.7.5-.4.3-.8.5-1.2.8-.2.1-.4.3-.6.4-.4.3-.9.5-1.3.7-.2,0-.4.2-.6.3-.6.3-1.2.5-1.7.8-.1,0-.3.1-.4.2,0,0,0,0,0,0-.5.2-1.1.4-1.6.6-.1,0-.3,0-.4.1-.1,0-.2,0-.3.1-.3,0-.5.1-.8.2-.3,0-.5.2-.8.2-.2,0-.4.1-.6.1-.3,0-.6.1-.9.2-.2,0-.4,0-.6.1-.2,0-.4,0-.7.1,0,0,0,0,0,0-.4,0-.8,0-1.2.1-.1,0-.2,0-.3,0-.1,0-.2,0-.4,0,0,0-.2,0-.3,0,0,0,0,0,0,0-.7,0-1.4,0-2.2,0-8.4,0-16-3.4-21.5-8.9-.3-.3-.7-.7-1-1.1-.7-.7-1.3-1.5-1.9-2.3-.9-1.2-1.7-2.4-2.4-3.7-.5-.9-.9-1.8-1.3-2.7-.4-.9-.7-1.8-1-2.8s-.3-1-.4-1.4c-.3-1-.5-2-.6-3-.2-1.5-.4-3.1-.4-4.6,0-16.8,13.6-30.5,30.5-30.5.6,0,1.2,0,1.8,0,0,0,.2,0,.3,0,.1,0,.2,0,.3,0,0,0,.2,0,.2,0,.4,0,.8,0,1.1.1.2,0,.3,0,.5,0,.1,0,.3,0,.4,0,.3,0,.6,0,.9.2.2,0,.3,0,.5,0,.2,0,.4,0,.5.1.4,0,.7.2,1.1.3.3,0,.5.1.8.2.4.1.7.2,1.1.3.3,0,.5.2.7.3.4.1.7.3,1.1.4.2,0,.5.2.7.3.4.2.7.3,1,.5.2.1.4.2.7.3.4.2.7.4,1.1.6.3.2.6.3.9.5,0,0,0,0,.1,0,.4.3.8.5,1.2.8.1,0,.3.2.4.3.3.2.7.5,1,.7.1,0,.2.2.3.3,2.3,1.8,4.3,3.9,6,6.3,0,0,0,0,0,0,0,0,0,0,0,0,0,0,0,0,0,0,0,0,0,0,0,0,0,0,0,0,0,0,0,0,0,0,0,0,0,0,0,0,0,0,0,0,0,0,0,0-.1-.5-.2-.9-.4-1.4,0,0,0,0,0,0-.1-.4-.2-.8-.3-1.1,0,0,0-.2,0-.2,0,0,0-.1,0-.2,0,0,0-.1,0-.2,0,0,0,0,0,0,0-.2,0-.3-.1-.5,0-.2-.1-.4-.2-.6,0-.3-.2-.6-.3-.9,0-.1,0-.3-.1-.4,0-.1,0-.2-.1-.4,0-.1,0-.2-.1-.4,0,0,0,0,0,0,0,0,0-.2-.1-.3-.1-.3-.2-.7-.4-1,0-.1,0-.2-.1-.4,0-.1,0-.2-.1-.3,0-.2-.1-.3-.2-.5,0,0,0-.2,0-.3,0,0,0,0,0,0,0,0,0-.2,0-.2,0,0,0,0,0,0,0,0,0,0,0,0,0,0,0,0,0,0,0,0,0-.2-.1-.3,0-.1-.1-.3-.2-.4-.1-.3-.2-.6-.3-.8,0-.1,0-.2-.1-.3,0-.1,0-.2-.1-.3,0,0,0,0,0,0,0,0,0,0,0-.1,0,0,0-.1,0-.2,0-.1-.1-.3-.2-.4,0,0,0-.1,0-.2,0-.1-.1-.3-.2-.4-.1-.2-.2-.5-.3-.7,0,0,0-.2-.1-.3,0-.1-.1-.2-.2-.4,0-.2-.2-.3-.2-.5,0-.2-.2-.4-.3-.6,0,0,0,0,0,0,0,0,0,0,0-.1,0,0,0,0,0,0,0,0,0-.1,0-.2,0-.1,0-.2-.1-.3,0,0-.1-.2-.2-.3,0-.2-.2-.3-.3-.5-.2-.3-.3-.6-.5-.9,0-.1-.1-.3-.2-.4,0,0,0-.1-.1-.2,0,0,0,0,0,0,0,0,0,0,0,0,0-.1-.1-.3-.2-.4,0,0,0-.1-.1-.2,0-.1-.2-.3-.2-.4-.2-.4-.4-.8-.7-1.2,0,0,0-.1-.1-.2,0,0,0,0,0,0,0,0-.1-.2-.2-.3,0,0,0-.1-.1-.2,0,0,0-.1,0-.2,0,0,0,0,0,0,0,0,0,0,0,0,0,0,0-.1-.1-.2-.2-.3-.3-.5-.5-.8,0-.1-.1-.2-.2-.3,0,0,0,0,0,0-.1-.2-.3-.4-.4-.6,0-.1-.1-.2-.2-.3,0,0-.1-.2-.2-.3,0,0,0-.1-.1-.2-.2-.3-.4-.5-.5-.8-.2-.3-.4-.5-.5-.8,0,0-.1-.2-.2-.2,0,0,0-.1-.1-.2,0,0-.1-.2-.2-.3,0,0,0-.1-.1-.2-.1-.2-.2-.3-.3-.5-.2-.3-.5-.6-.7-.9-.1-.1-.2-.3-.3-.4-.1-.1-.2-.3-.3-.4,0,0,0,0,0,0,0,0-.1-.1-.2-.2,0,0,0,0,0,0,0-.1-.2-.2-.2-.3-.1-.2-.3-.4-.4-.6-.2-.2-.4-.4-.5-.6-.2-.2-.4-.4-.5-.7-.1-.1-.2-.3-.3-.4,0,0,0,0-.1-.1,0,0,0,0,0-.1,0,0-.1-.1-.2-.2,0,0-.1-.2-.2-.2-.1-.1-.3-.3-.4-.4,0,0-.1-.2-.2-.2-.2-.2-.3-.4-.5-.6,0,0-.1-.1-.2-.2,0,0,0,0,0,0,0,0,0,0,0,0,0,0,0,0,0,0,0,0,0,0,0,0,0,0,0-.1-.1-.2-.2-.3-.5-.5-.7-.8,0,0,0,0,0,0-.2-.2-.3-.3-.4-.5,0-.1-.2-.2-.3-.3,0,0-.2-.2-.3-.3-.1-.1-.3-.3-.4-.4,0,0-.1-.1-.2-.2-.1-.1-.2-.2-.3-.3-.3-.3-.5-.5-.8-.8-.1-.1-.3-.3-.4-.4,0,0,0,0,0,0,0,0,0,0,0,0-.1-.1-.3-.2-.4-.4-.1-.1-.2-.2-.4-.3,0,0,0,0-.1,0-.2-.2-.4-.3-.6-.5-.3-.3-.6-.5-.8-.8,0,0-.2-.1-.2-.2-.1,0-.2-.2-.3-.3,0,0-.1-.1-.2-.2,0,0,0,0-.1-.1-.1-.1-.3-.2-.4-.3-.3-.2-.6-.5-.9-.7,0,0-.1,0-.2-.1-.2-.1-.3-.3-.5-.4-.2-.2-.4-.3-.6-.5,0,0,0,0,0,0,0,0,0,0,0,0,0,0-.1,0-.2-.1-.1,0-.2-.2-.3-.3-.2-.2-.5-.4-.7-.5-.2-.2-.5-.4-.7-.5-.2-.2-.5-.4-.7-.5,0,0,0,0,0,0-.3-.2-.5-.4-.8-.5-.2-.1-.3-.2-.5-.4-.1-.1-.3-.2-.4-.3-.1,0-.3-.2-.4-.3,0,0,0,0,0,0-.1,0-.2-.2-.4-.3-.3-.2-.6-.4-.9-.6-.2-.1-.4-.3-.6-.4,0,0-.2-.1-.3-.2-.1,0-.2-.2-.4-.2-.2,0-.3-.2-.5-.3-.2-.1-.4-.2-.6-.3-.3-.2-.5-.3-.8-.5-.2-.1-.4-.2-.6-.3-.2-.1-.5-.3-.7-.4,0,0-.2,0-.2-.1,0,0,0,0,0,0-.3-.1-.5-.3-.8-.4,0,0,0,0,0,0-.3-.2-.6-.3-.8-.5,0,0,0,0,0,0-.2,0-.3-.2-.5-.2-.1,0-.2-.1-.4-.2-.3-.2-.7-.3-1-.5-.3-.2-.6-.3-1-.5,0,0-.2,0-.3-.1-.2,0-.3-.1-.5-.2-.4-.2-.7-.3-1.1-.5,0,0,0,0,0,0,0,0-.1,0-.2,0-.2,0-.4-.2-.6-.3-.3-.1-.5-.2-.8-.3,0,0,0,0-.1,0,0,0,0,0,0,0-.3-.1-.7-.3-1-.4-.3-.1-.6-.2-.9-.4-.2,0-.5-.2-.7-.3-.1,0-.2,0-.4-.1,0,0,0,0,0,0,0,0-.2,0-.2,0-.2,0-.5-.2-.7-.3-.3-.1-.6-.2-.9-.3-.3-.1-.7-.2-1-.3-.3-.1-.7-.2-1-.3-.3,0-.6-.2-1-.3,0,0,0,0,0,0-.3,0-.6-.2-1-.3-.3,0-.7-.2-1-.3-.4-.1-.8-.2-1.2-.3-.3,0-.5-.1-.8-.2-.4,0-.7-.2-1.1-.2-.4,0-.9-.2-1.3-.3-.1,0-.2,0-.4,0-.1,0-.2,0-.4,0,0,0-.1,0-.2,0,0,0,0,0,0,0-.2,0-.4,0-.6-.1-.6-.1-1.3-.2-1.9-.3-.5,0-1-.1-1.4-.2-.6,0-1.3-.2-1.9-.3-.5,0-1-.1-1.5-.2-.6,0-1.3-.1-1.9-.2-.5,0-1,0-1.5,0-.6,0-1.3,0-1.9,0-.2,0-.3,0-.5,0,0,0,0,0,0,0-.8,0-1.5,0-2.3,0-44.2,0-80,35.8-80,80s35.8,80,80,80,1.5,0,2.3,0c0,0,0,0,0,0,.2,0,.3,0,.5,0,.7,0,1.4,0,2.2-.1.5,0,.9,0,1.4,0,.7,0,1.4-.1,2.1-.2.5,0,.9,0,1.4-.2.7,0,1.4-.2,2.1-.3.5,0,.9-.1,1.4-.2.7-.1,1.4-.2,2-.4,0,0,0,0,0,0,.2,0,.3,0,.4,0,.3,0,.6-.1.9-.2.5,0,.9-.2,1.4-.3.3,0,.6-.2.9-.2.4,0,.7-.2,1.1-.3.4,0,.8-.2,1.1-.3.3,0,.6-.2.9-.3.4-.1.8-.2,1.2-.4.3,0,.6-.2.8-.3.4-.1.8-.3,1.2-.4.3-.1.7-.2,1-.4.3,0,.6-.2.8-.3,0,0,.2,0,.3,0,0,0,0,0,0,0,0,0,0,0,0,0,.2,0,.4-.1.5-.2.2,0,.5-.2.7-.3.2,0,.4-.2.6-.2,0,0,.1,0,.2,0,0,0,.1,0,.2,0,.2,0,.4-.2.6-.3.3-.1.7-.3,1-.4.3-.1.7-.3,1-.4.1,0,.2,0,.3-.1.2,0,.4-.2.6-.3.3-.1.6-.3.9-.4.2-.1.5-.2.7-.3.1,0,.2,0,.3-.1.1,0,.3-.2.4-.2.4-.2.8-.4,1.2-.6.2,0,.3-.2.5-.3,0,0,0,0,0,0,.2-.1.4-.2.6-.3.2,0,.3-.2.5-.3,0,0,.1,0,.2-.1,0,0,0,0,0,0,0,0,.1,0,.2,0,.2-.1.5-.3.7-.4.2-.1.4-.2.6-.4,0,0,.2-.1.3-.2.2,0,.3-.2.5-.3,0,0,0,0,0,0,0,0,.1,0,.2-.1.2-.2.5-.3.7-.5.2-.1.5-.3.7-.4.2-.1.4-.2.5-.4.2-.1.4-.3.6-.4,0,0,.2-.1.3-.2.3-.2.5-.4.8-.6.2-.1.3-.2.5-.4,0,0,.1-.1.2-.2,0,0,.2-.1.3-.2.2-.1.4-.3.6-.4.2-.1.3-.3.5-.4,0,0,0,0,0,0,.2-.2.5-.4.7-.5.1,0,.2-.2.3-.3.2-.2.5-.4.7-.6,0,0,.2-.2.3-.2,0,0,.2-.1.3-.2,0,0,.1,0,.2-.1,0,0,.2-.1.3-.2.2-.1.3-.3.5-.4.1,0,.2-.2.3-.3.2-.1.3-.3.5-.4,0,0,.2-.1.2-.2.1-.1.3-.2.4-.4,0,0,.1-.1.2-.2,0,0,0,0,0,0,.1-.1.3-.2.4-.4.2-.2.5-.4.7-.7.1-.1.2-.2.4-.3.1,0,.2-.2.3-.3,0,0,0,0,0,0,0,0,.2-.1.2-.2,0,0,.1-.1.2-.2,0,0,.1-.1.2-.2,0,0,0,0,0,0,0,0,.2-.2.3-.3.2-.2.5-.5.7-.7.1,0,.2-.2.3-.3,0,0,.2-.2.3-.3.1-.1.2-.2.4-.4,0,0,.2-.2.3-.3.2-.2.3-.3.5-.5.2-.3.5-.5.7-.8.1-.1.3-.3.4-.4,0,0,.1-.2.2-.2,0,0,0,0,0,0,.1-.1.2-.2.3-.3,0,0,0,0,0,0,0,0,.1-.1.2-.2,0,0,0,0,0,0,0,0,0-.1.1-.2,0,0,0,0,0,0,0-.1.2-.2.3-.3.2-.3.5-.5.7-.8,0,0,0,0,.1-.1,0,0,0,0,.1-.1,0,0,.1-.2.2-.2,0,0,0,0,0,0,0,0,.1-.1.2-.2.1-.1.2-.3.3-.4.2-.3.4-.5.7-.8,0-.1.2-.2.3-.3,0-.1.2-.2.3-.3,0,0,0-.1.1-.2,0-.1.2-.2.3-.3,0-.1.2-.2.3-.4,0,0,.1-.2.2-.2,0,0,0,0,0-.1.2-.2.3-.4.5-.6,0,0,0,0,0,0,0,0,0,0,0,0,0-.1.2-.2.2-.3,0,0,0,0,0,0,0,0,0,0,0,0,.1-.2.3-.3.4-.5.1-.2.2-.3.4-.5,0,0,0-.1.1-.2,0,0,0-.1.1-.2,0-.1.1-.2.2-.3,0-.1.2-.3.3-.4,0-.1.2-.2.2-.3,0-.1.1-.2.2-.3,0-.1.1-.2.2-.3.1-.2.2-.3.3-.5,0,0,0,0,0-.1,0-.1.1-.2.2-.3,0-.1.1-.2.2-.3,0,0,0-.1.1-.2.1-.2.2-.3.3-.5.1-.2.2-.3.3-.5,0,0,0,0,0,0,0,0,0-.1,0-.2,0-.1.2-.3.2-.4,0,0,0,0,0-.1,0,0,0-.1.1-.2,0,0,0,0,0,0,0,0,0,0,0,0,0,0,0-.2.1-.2,0,0,0-.1.1-.2Z"/>
</svg>