<svg version="1.1" id="Layer_1" xmlns:x="ns_extend;" xmlns:i="ns_ai;" xmlns:graph="ns_graphs;" xmlns="http://www.w3.org/2000/svg" xmlns:xlink="http://www.w3.org/1999/xlink" x="0px" y="0px" viewBox="0 0 284 69" style="enable-background:new 0 0 284 69;" xml:space="preserve">
 <style type="text/css">
  .st0{fill-rule:evenodd;clip-rule:evenodd;fill:url(#SVGID_1_);}
	.st1{fill-rule:evenodd;clip-rule:evenodd;fill:url(#SVGID_2_);}
	.st2{fill:#FFFFFF;}
	.st3{fill-rule:evenodd;clip-rule:evenodd;fill:#FFFFFF;}
 </style>
 <metadata>
  <sfw xmlns="ns_sfw;">
   <slices>
   </slices>
   <sliceSourceBounds bottomLeftOrigin="true" height="68.4" width="282.5" x="0.8" y="0.3">
   </sliceSourceBounds>
  </sfw>
 </metadata>
 <linearGradient id="SVGID_1_" gradientUnits="userSpaceOnUse" x1="0.7949" y1="15.369" x2="55.6395" y2="15.369" gradientTransform="matrix(1 0 0 -1 0 70)">
  <stop offset="0" style="stop-color:#8930FD">
  </stop>
  <stop offset="1" style="stop-color:#49CCF9">
  </stop>
 </linearGradient>
 <path class="st0" d="M0.8,50.9l10.1-7.8c5.4,7,11.1,10.3,17.4,10.3c6.3,0,11.9-3.2,17-10.2l10.3,7.6c-7.4,10-16.6,15.3-27.3,15.3
	C17.7,66.1,8.4,60.9,0.8,50.9z">
 </path>
 <linearGradient id="SVGID_2_" gradientUnits="userSpaceOnUse" x1="1.9902" y1="53.4858" x2="54.5396" y2="53.4858" gradientTransform="matrix(1 0 0 -1 0 70)">
  <stop offset="0" style="stop-color:#FF02F0">
  </stop>
  <stop offset="1" style="stop-color:#FFC800">
  </stop>
 </linearGradient>
 <path class="st1" d="M28.3,17.2l-18,15.5L2,23L28.4,0.3l26.2,22.7l-8.4,9.6L28.3,17.2z">
 </path>
 <rect x="114.5" y="13.4" class="st2" width="10.2" height="42.5">
 </rect>
 <path class="st3" d="M93.9,56.1c-6,0-11-1.9-15.1-5.8c-4.1-4-6.1-9-6.1-15.2c0-6.2,2.1-11.4,6.1-15.4C83,15.6,88,13.6,94,13.6
	c7.3,0,13.9,3.2,17.7,8.1l-6.6,7c-3.2-3.4-6.6-5.1-10.4-5.1c-3.2,0-5.8,1.1-8,3.2c-2.1,2.2-3.2,4.9-3.2,8.2c0,3.2,1.1,5.8,3.2,8
	c2.2,2.1,4.8,3.2,7.9,3.2c4.1,0,7.6-1.8,10.6-5.3l6.9,6.6c-1.9,2.5-4.5,4.6-7.6,6.2C101.3,55.3,97.8,56.1,93.9,56.1z">
 </path>
 <path class="st3" d="M140,16.8c0,3.1-2.5,5.5-5.5,5.5s-5.5-2.5-5.5-5.5c0-3.1,2.5-5.5,5.5-5.5S140,13.8,140,16.8z M139.6,24.9h-10.2
	v31h10.2V24.9z">
 </path>
 <path class="st3" d="M159.3,56.2c-4.8,0-8.7-1.5-11.8-4.5c-3-3-4.5-6.8-4.5-11.6s1.5-8.6,4.6-11.6c3.1-3,7-4.5,11.9-4.5
	c6.4,0,12,3.1,14.6,9l-7.9,4.1c-1.6-2.6-3.7-4-6.6-4c-2.1,0-3.7,0.7-5.1,2c-1.3,1.3-1.9,3-1.9,5c0,4.1,3,7.1,6.9,7.1
	c2.8,0,5.5-1.6,6.6-4l7.9,4.7C171.4,53,165.9,56.2,159.3,56.2z">
 </path>
 <path class="st3" d="M186.8,13.4h-10.2v42.5h10.2V45.1L188,44l9.3,11.9h11.9l-14.3-18.3l13.6-12.7H196l-9.2,8.6V13.4z">
 </path>
 <path class="st3" d="M211,39.9V13.4h10.6v25.9c0,4.6,2.7,6.8,6.6,6.8c3.8,0,6.6-2.3,6.6-6.8V13.4h10.6v26.4
	c0,12.1-8.5,16.7-17.2,16.7C219.6,56.6,211,52,211,39.9z">
 </path>
 <path class="st3" d="M268.4,56.8c8.2,0,14.9-7.2,14.9-16.2c0-8.9-6.7-16.2-14.9-16.2c-3.3,0-6.4,1.2-8.9,3.2v-2.8h-9.8v43.8h9.8
	V53.6C262,55.6,265.1,56.8,268.4,56.8z M259.5,40.6L259.5,40.6c0-4,3.1-7.2,7-7.2c3.9,0,7,3.2,7,7.2s-3.1,7.2-7,7.2
	C262.6,47.9,259.5,44.6,259.5,40.6z">
 </path>
</svg>