<svg version="1.1" xmlns="http://www.w3.org/2000/svg" xmlns:xlink="http://www.w3.org/1999/xlink" x="0px" y="0px" viewBox="0 0 772.2 110" style="enable-background:new 0 0 772.2 110;" xml:space="preserve">
 <style type="text/css">
  .st0{fill:#FFFFFF;}
	.st1{display:none;}
	.st2{display:inline;fill:none;stroke:#2DAAE1;stroke-width:0.25;stroke-miterlimit:10;}
 </style>
 <g id="Layer_1">
  <g>
   <path class="st0" d="M17.5,30.5C17.5,18.4,11.4,8.4,0,0h26.5c9.3,7.2,15,18.2,15,30.5c0,12.3-5.7,23.3-15,30.5
			C35.1,64.6,40,73.4,40,86v24H16V86c0-12-5.7-20.4-16-25C11.4,52.6,17.5,42.6,17.5,30.5 M69.5,30.5C69.5,18.4,63.4,8.4,52,0h26.5
			c9.3,7.2,15,18.2,15,30.5c0,12.3-5.7,23.3-15,30.5C87.1,64.6,92,73.4,92,86v24H68V86c0-12-5.7-20.4-16-25
			C63.4,52.6,69.5,42.6,69.5,30.5 M121.5,30.5c0-12.1-6.1-22.1-17.5-30.5h26.5c9.3,7.2,15,18.2,15,30.5c0,12.3-5.7,23.3-15,30.5
			c8.6,3.6,13.5,12.4,13.5,25v24h-24V86c0-12-5.7-20.4-16-25C115.4,52.6,121.5,42.6,121.5,30.5">
   </path>
   <path class="st0" d="M218.6,90h-18.2V20h44.7c21.5,0,32.1,8,32.1,21.1c0,8.9-5.2,15.6-14.9,19c10,1.5,14.5,6.8,14.5,16.3V90h-18.4
			V77.2c0-8-4-11.2-14.5-11.2h-25.3V90z M244.1,30.2h-25.5v25.6h25.3c9.2,0,14.9-5.1,14.9-13.1C258.8,34.8,253.5,30.2,244.1,30.2">
   </path>
   <rect x="290.6" y="20" class="st0" width="18.2" height="70">
   </rect>
   <path class="st0" d="M364.6,67.2h-22.2V90h-18.2V20H365c21.5,0,32.8,9,32.8,23.4C397.8,58.3,386.3,67.2,364.6,67.2 M364.2,30.2
			h-21.8V57H364c9.4,0,15.2-4.8,15.2-13.5C379.2,35,373.4,30.2,364.2,30.2">
   </path>
   <path class="st0" d="M449,67.2h-22.2V90h-18.2V20h40.8c21.5,0,32.8,9,32.8,23.4C482.2,58.3,470.7,67.2,449,67.2 M448.6,30.2h-21.8
			V57h21.6c9.4,0,15.2-4.8,15.2-13.5C463.6,35,457.8,30.2,448.6,30.2">
   </path>
   <polygon class="st0" points="511.2,20 511.2,79.6 556.6,79.6 556.6,90 493,90 493,20 		">
   </polygon>
   <rect x="568" y="20" class="st0" width="18.2" height="70">
   </rect>
   <polygon class="st0" points="613.6,43.4 613.6,90 601.6,90 601.6,20 615.2,20 664.8,66.6 664.8,20 676.8,20 676.8,90 663.2,90 		
			">
   </polygon>
   <path class="st0" d="M736.2,28.2c-17.3,0-28.6,11-28.6,27.4c0,16.2,10.8,26.2,27.6,26.2h1.2c5.7,0,12.1-1.2,18-3.1V59.8H725v-10
			h47.2v32.9c-9.8,5.1-24.6,9.1-36.6,9.1H734c-27.6,0-45.4-14.6-45.4-35.8c0-21,18.3-37.8,46.4-37.8h1.6c11.7,0,25.1,3.7,35,9.5
			l-5.2,8.5c-8.9-4.9-19.5-8-29-8H736.2z">
   </path>
  </g>
 </g>
 <g id="grid_for_exports" class="st1">
  <polygon class="st2" points="-64.6,133.3 -64.6,179.9 -76.6,179.9 -76.6,109.9 -63,109.9 -13.4,156.5 -13.4,109.9 -1.4,109.9 
		-1.4,179.9 -15,179.9 	">
  </polygon>
  <polygon class="st2" points="-139.8,203.3 -139.8,249.9 -151.8,249.9 -151.8,179.9 -138.2,179.9 -88.6,226.5 -88.6,179.9 
		-76.6,179.9 -76.6,249.9 -90.2,249.9 	">
  </polygon>
  <polygon class="st2" points="-64.6,-46.5 -64.6,0.1 -76.6,0.1 -76.6,-69.9 -63,-69.9 -13.4,-23.3 -13.4,-69.9 -1.4,-69.9 -1.4,0.1 
		-15,0.1 	">
  </polygon>
  <polygon class="st2" points="-139.8,-116.5 -139.8,-69.9 -151.8,-69.9 -151.8,-139.9 -138.2,-139.9 -88.6,-93.3 -88.6,-139.9 
		-76.6,-139.9 -76.6,-69.9 -90.2,-69.9 	">
  </polygon>
  <polygon class="st2" points="857.8,203.3 857.8,249.9 845.8,249.9 845.8,179.9 859.4,179.9 909,226.5 909,179.9 921,179.9 
		921,249.9 907.4,249.9 	">
  </polygon>
  <polygon class="st2" points="782.6,133.3 782.6,179.9 770.6,179.9 770.6,109.9 784.2,109.9 833.8,156.5 833.8,109.9 845.8,109.9 
		845.8,179.9 832.2,179.9 	">
  </polygon>
  <polygon class="st2" points="857.8,-116.6 857.8,-69.9 845.8,-69.9 845.8,-140 859.4,-140 909,-93.4 909,-140 921,-140 921,-69.9 
		907.4,-69.9 	">
  </polygon>
  <polygon class="st2" points="782.6,-46.5 782.6,0.1 770.6,0.1 770.6,-69.9 784.2,-69.9 833.8,-23.3 833.8,-69.9 845.8,-69.9 
		845.8,0.1 832.2,0.1 	">
  </polygon>
  <polyline class="st2" points="600.1,118.7 600.1,127.7 675.3,127.7 675.3,118.7 	">
  </polyline>
  <polyline class="st2" points="142.5,119 142.5,128 198.9,128 198.9,119 	">
  </polyline>
  <line class="st2" x1="770.6" y1="251.1" x2="770.6" y2="-140">
  </line>
  <line class="st2" x1="-1.4" y1="-138.8" x2="-1.4" y2="251.1">
  </line>
  <line class="st2" x1="921" y1="0.1" x2="-151.6" y2="0.1">
  </line>
  <line class="st2" x1="921" y1="109.9" x2="-151.8" y2="109.9">
  </line>
  <rect x="149.4" y="134.2" style="display:inline;fill:none;" width="44.6" height="6">
  </rect>
  <text transform="matrix(1 0 0 1 149.3828 139.1535)" style="display:inline;fill:#2DAAE1; font-family:'Basel-Regular'; font-size:7px;">
   75% N WIDTH
  </text>
  <rect x="615.4" y="133.4" style="display:inline;fill:none;" width="44.6" height="6">
  </rect>
  <text transform="matrix(1 0 0 1 624.2497 138.3637)" style="display:inline;fill:#2DAAE1; font-family:'Basel-Regular'; font-size:7px;">
   N WIDTH
  </text>
  <rect x="-151.8" y="-140" class="st2" width="1072.8" height="389.9">
  </rect>
 </g>
</svg>