<svg xmlns="http://www.w3.org/2000/svg" width="164" height="23" viewBox="0 0 164 23" fill="none">
<g clip-path="url(#clip0_1293_14101)">
<g clip-path="url(#clip1_1293_14101)">
<path d="M8.47342 6.0069L11.022 6.68678L9.28629 0.19873L6.34692 0.98989L7.39321 4.92397C7.53298 5.45186 7.94688 5.86712 8.47342 6.0069Z" fill="#F34E3F"/>
<path d="M4.16478 19.2218L9.72461 13.6728L11.748 21.2329L14.6873 20.4418L11.7588 9.46461L0.78166 6.53882L0 9.49447L7.55333 11.5138L2.01657 17.0546L4.16478 19.2218Z" fill="#F34E3F"/>
<path d="M14.5312 10.1987L15.2138 12.7581C15.355 13.286 15.7689 13.6999 16.2941 13.8397L20.2512 14.8914L21.0329 11.9358L14.5312 10.1987Z" fill="#F34E3F"/>
<path d="M16.8681 2.2085L14.3386 4.73532C14.059 5.01487 13.9003 5.38535 13.8894 5.7816L13.8487 7.38428L15.3306 7.43585C15.3116 7.43585 15.3496 7.43585 15.3306 7.43585C15.7363 7.43585 16.1177 7.27707 16.404 6.99073L19.0163 4.3757L16.8681 2.2085Z" fill="#F34E3F"/>
</g>
</g>
<path d="M35.8622 10.1313C34.9642 9.75465 33.841 9.43959 32.4926 9.18755C31.5727 8.99577 30.8834 8.82592 30.4234 8.67798C29.9634 8.53004 29.6229 8.341 29.4004 8.11224C29.178 7.88348 29.0668 7.56843 29.0668 7.16981C29.0668 6.69586 29.1958 6.33012 29.4554 6.07122C29.7149 5.81233 30.0678 5.63151 30.5126 5.52741C30.9575 5.42467 31.5136 5.37262 32.1809 5.37262C32.9814 5.37262 33.7792 5.46851 34.5728 5.66165C35.3665 5.85479 36.2219 6.15752 37.1419 6.5712L37.6307 3.81925C36.8 3.41926 35.9294 3.12338 35.0163 2.93161C34.1046 2.73983 33.1586 2.64258 32.1809 2.64258C31.0097 2.64258 29.9414 2.82339 28.9775 3.18639C28.0136 3.5494 27.242 4.07403 26.6639 4.76168C26.0858 5.44933 25.7961 6.28902 25.7961 7.28077C25.7961 8.15334 26.0185 8.88619 26.4634 9.47795C26.9083 10.0697 27.5605 10.5464 28.4214 10.9094C29.281 11.2724 30.3794 11.571 31.7141 11.808C32.6629 12.0011 33.3741 12.1737 33.8492 12.3299C34.3243 12.4847 34.695 12.6997 34.9614 12.9737C35.2278 13.2477 35.3624 13.6436 35.3624 14.1613C35.3624 14.6353 35.2099 15.0079 34.9065 15.2818C34.603 15.5558 34.2021 15.7407 33.705 15.8366C33.208 15.9325 32.6107 15.9805 31.9145 15.9805C30.9506 15.9805 29.8934 15.8544 28.7455 15.6038C27.5962 15.3531 26.6062 15.012 25.7755 14.5832L25.4858 17.3133C26.2863 17.7722 27.2461 18.1201 28.3665 18.3557C29.4856 18.5927 30.6829 18.7105 31.9585 18.7105C33.2341 18.7105 34.2859 18.5297 35.2951 18.1667C36.3029 17.805 37.1075 17.2722 37.709 16.5695C38.309 15.8668 38.6097 15.012 38.6097 14.0066C38.6097 13.0751 38.3763 12.2902 37.9094 11.6546C37.4426 11.019 36.7602 10.5122 35.8635 10.1341L35.8622 10.1313Z" fill="#F8F8F8"/>
<path d="M49.7097 6.82445C48.6868 6.28475 47.5444 6.01489 46.2839 6.01489C45.0234 6.01489 43.8439 6.28475 42.8361 6.82445C41.8269 7.36416 41.0373 8.11893 40.4675 9.08738C39.8963 10.0572 39.6107 11.1476 39.6107 12.3612C39.6107 13.5749 39.8922 14.6392 40.4565 15.6009C41.0195 16.5625 41.809 17.3213 42.8251 17.8761C43.8412 18.4309 44.9932 18.709 46.2839 18.709C47.5746 18.709 48.6868 18.4309 49.7097 17.8761C50.7327 17.3213 51.5304 16.5597 52.1016 15.5899C52.6728 14.6214 52.9584 13.5379 52.9584 12.3393C52.9584 11.1407 52.6728 10.0394 52.1016 9.0778C51.5304 8.11619 50.7341 7.36553 49.7097 6.82582V6.82445ZM49.5093 14.2913C49.1976 14.8543 48.7596 15.294 48.1966 15.6118C47.6323 15.9296 47.002 16.0885 46.3059 16.0885C45.6097 16.0885 44.9342 15.9296 44.3712 15.6118C43.8069 15.294 43.362 14.8502 43.0366 14.2803C42.7098 13.7105 42.5477 13.0557 42.5477 12.316C42.5477 11.5763 42.7111 10.9325 43.0366 10.386C43.3633 9.83941 43.8082 9.40929 44.3712 9.09834C44.9342 8.7874 45.5726 8.63261 46.2839 8.63261C46.9951 8.63261 47.6336 8.7874 48.1966 9.09834C48.7596 9.40929 49.1976 9.84626 49.5093 10.4079C49.821 10.9709 49.9761 11.6215 49.9761 12.3612C49.9761 13.1009 49.821 13.7297 49.5093 14.2913Z" fill="#F8F8F8"/>
<path d="M63.3444 13.501C63.2881 13.6489 63.2263 13.7941 63.1549 13.9366C62.8364 14.5722 62.3942 15.0763 61.8313 15.4461C61.2669 15.816 60.6381 16.0009 59.9405 16.0009C59.0206 16.0009 58.3354 15.753 57.8837 15.2571C57.4305 14.7612 57.2054 14.0558 57.2054 13.138V6.25879H54.2477V13.5818C54.2477 14.6174 54.4551 15.5201 54.8711 16.2886C55.2858 17.0584 55.8639 17.6502 56.6067 18.0638C57.3482 18.4775 58.2008 18.6857 59.1647 18.6857C60.6175 18.6857 61.7681 18.3159 62.6126 17.5762C62.8899 17.3337 63.1316 17.068 63.3472 16.7803V18.4419H66.3048V6.25879H63.3472V13.501H63.3444Z" fill="#F8F8F8"/>
<path d="M74.4883 6.03687C73.0946 6.03687 72.0483 6.49575 71.3522 7.41216C71.1874 7.62996 71.0391 7.87242 70.9073 8.13953V6.25877H67.9483V18.4419H70.9073V13.427C70.9073 12.0668 71.1998 10.975 71.7861 10.1545C72.371 9.33401 73.1688 8.92306 74.1766 8.92306H74.9112C75.0595 8.93813 75.1927 8.94498 75.3121 8.94498H75.6678L76.0014 6.19302C75.4824 6.09029 74.9785 6.03824 74.4883 6.03824V6.03687Z" fill="#F8F8F8"/>
<path d="M80.8169 9.06547C81.3881 8.76274 82.0362 8.61069 82.764 8.61069C83.3571 8.61069 83.9132 8.69973 84.4322 8.87644C84.9513 9.05451 85.4772 9.34217 86.0113 9.74215L87.2347 7.54498C86.5083 7.01212 85.7669 6.62446 85.0103 6.38063C84.2537 6.13681 83.423 6.01489 82.5195 6.01489C81.3181 6.01489 80.221 6.2779 79.2269 6.80254C78.2328 7.32717 77.4474 8.07509 76.8693 9.04355C76.2912 10.0134 76.0015 11.1188 76.0015 12.3612C76.0015 13.6037 76.283 14.7023 76.8473 15.657C77.4103 16.6118 78.193 17.3515 79.1939 17.8761C80.1949 18.4007 81.2961 18.6638 82.4976 18.6638C83.4162 18.6638 84.2359 18.5487 84.9554 18.3199C85.6749 18.0912 86.4342 17.709 87.2347 17.1775L86.0552 15.0255C85.5211 15.3803 84.9842 15.6502 84.4419 15.8351C83.9009 16.02 83.3475 16.1132 82.7845 16.1132C82.0582 16.1132 81.406 15.9652 80.8265 15.6693C80.2485 15.3735 79.7926 14.9406 79.4589 14.3708C79.1253 13.8009 78.9578 13.1324 78.9578 12.3626C78.9578 11.5928 79.1239 10.9092 79.4589 10.3545C79.7926 9.79969 80.2443 9.37094 80.8156 9.06684L80.8169 9.06547Z" fill="#F8F8F8"/>
<path d="M96.7995 6.73547C95.8946 6.26973 94.9005 6.03687 93.8186 6.03687C92.5279 6.03687 91.3896 6.30672 90.4037 6.84643C89.4178 7.38613 88.6571 8.13679 88.123 9.0984C87.5889 10.06 87.3225 11.1476 87.3225 12.3599C87.3225 13.5722 87.604 14.6201 88.1683 15.5886C88.7313 16.5584 89.5249 17.3159 90.5479 17.8638C91.5708 18.4118 92.7201 18.6844 93.9957 18.6844C94.8854 18.6844 95.6791 18.5912 96.3752 18.4063C97.0728 18.2214 97.7387 17.9145 98.3772 17.4858L97.6206 15.0667C97.1455 15.4078 96.5977 15.6694 95.9743 15.8543C95.3509 16.0392 94.7426 16.1324 94.1508 16.1324C93.3503 16.1324 92.661 15.9886 92.0816 15.6995C91.5035 15.4105 91.0587 14.9859 90.747 14.4229C90.5767 14.116 90.4545 13.7667 90.3776 13.3804H99.3328C99.4358 13.0846 99.5223 12.7695 99.5882 12.4366C99.6555 12.1038 99.6885 11.7531 99.6885 11.3832C99.6885 10.3778 99.4331 9.46688 98.9209 8.65321C98.4088 7.83954 97.7016 7.19984 96.7968 6.7341L96.7995 6.73547ZM90.6934 10.3422C90.968 9.78057 91.3676 9.34771 91.8949 9.04361C92.4208 8.74088 93.0483 8.58883 93.7746 8.58883C94.4268 8.58883 94.9898 8.71896 95.4649 8.97648C95.94 9.23538 96.2874 9.63126 96.5098 10.1641C96.6402 10.4751 96.7158 10.8312 96.7391 11.2298H90.3927C90.4614 10.9107 90.5602 10.6134 90.6934 10.3422Z" fill="#F8F8F8"/>
<path d="M110.924 7.92304C110.436 7.28745 109.819 6.81076 109.078 6.49159C108.336 6.17379 107.462 6.01489 106.452 6.01489C105.355 6.01489 104.372 6.27379 103.506 6.79158C102.638 7.30937 101.955 8.02715 101.46 8.94356C100.963 9.86133 100.714 10.8887 100.714 12.0284C100.714 13.1681 100.963 14.1338 101.46 15.0132C101.957 15.894 102.646 16.5885 103.529 17.0994C104.411 17.6104 105.401 17.8652 106.499 17.8652C107.478 17.8652 108.335 17.7104 109.068 17.3994C109.803 17.0885 110.407 16.6159 110.881 15.9789V16.5556C110.881 17.6501 110.528 18.5158 109.823 19.1514C109.119 19.787 108.144 20.1062 106.899 20.1062C106.083 20.1062 105.289 19.9843 104.519 19.7404C103.747 19.4966 103.058 19.1596 102.45 18.7309L101.294 20.8171C102.094 21.3637 102.995 21.7828 103.996 22.0705C104.997 22.3595 106.076 22.5033 107.232 22.5033C109.308 22.5033 110.933 21.9486 112.104 20.839C113.275 19.7295 113.861 18.1843 113.861 16.2008V6.25872H110.926V7.92304H110.924ZM110.423 13.9036C110.105 14.4434 109.671 14.8584 109.122 15.1461C108.572 15.4351 107.935 15.5789 107.209 15.5789C106.542 15.5789 105.937 15.4269 105.396 15.1242C104.855 14.8214 104.428 14.3954 104.118 13.8475C103.806 13.3009 103.651 12.6941 103.651 12.0284C103.651 11.3626 103.806 10.7079 104.118 10.1531C104.43 9.59832 104.855 9.16547 105.396 8.85452C105.937 8.54357 106.542 8.38878 107.209 8.38878C107.935 8.38878 108.574 8.53261 109.122 8.82164C109.669 9.11067 110.103 9.52847 110.423 10.075C110.742 10.6229 110.901 11.2585 110.901 11.9832C110.901 12.7078 110.742 13.3626 110.423 13.9023V13.9036Z" fill="#F8F8F8"/>
<path d="M118.954 7.41225C118.789 7.63005 118.641 7.87251 118.509 8.13962V6.25887H115.55V18.442H118.509V13.4271C118.509 12.0669 118.802 10.9751 119.388 10.1546C119.973 9.3341 120.771 8.92316 121.779 8.92316H122.513C122.661 8.93823 122.795 8.94508 122.914 8.94508H123.27L123.603 6.19312C123.084 6.09038 122.58 6.03833 122.09 6.03833C120.697 6.03833 119.65 6.49721 118.954 7.41362V7.41225Z" fill="#F8F8F8"/>
<path d="M133.69 7.35731C132.733 6.46282 131.284 6.01489 129.342 6.01489C127.859 6.01489 126.367 6.25872 124.871 6.74774L125.226 9.34354C125.774 9.10656 126.376 8.92575 127.028 8.79973C127.68 8.6737 128.347 8.61069 129.03 8.61069C130.068 8.61069 130.851 8.81068 131.376 9.2093C131.902 9.60928 132.166 10.201 132.166 10.9846V11.0777C131.683 11.0353 131.157 10.9955 130.587 10.9613C129.845 10.9175 129.119 10.8942 128.406 10.8942C126.805 10.8942 125.618 11.2572 124.847 11.9818C124.076 12.7064 123.691 13.6393 123.691 14.7776C123.691 15.5324 123.862 16.2049 124.203 16.7967C124.544 17.3885 125.038 17.8515 125.682 18.1829C126.328 18.5158 127.072 18.6829 127.918 18.6829C128.763 18.6829 129.49 18.561 130.142 18.3172C130.794 18.0734 131.321 17.7556 131.721 17.3624C131.891 17.1953 132.038 17.0255 132.166 16.8529V18.4391H135.125V11.1832C135.125 9.5271 134.647 8.25043 133.69 7.35457V7.35731ZM130.743 15.7447C130.255 16.0186 129.638 16.1556 128.897 16.1556C128.155 16.1556 127.529 16.0269 127.106 15.7666C126.683 15.5077 126.472 15.1269 126.472 14.6242C126.472 14.0913 126.686 13.6845 127.117 13.4037C127.547 13.1229 128.273 12.9818 129.298 12.9818C129.861 12.9818 130.373 12.9927 130.833 13.0146C131.284 13.0366 131.728 13.0763 132.166 13.1338C132.155 13.6913 132.042 14.1913 131.823 14.6338C131.593 15.0995 131.234 15.4693 130.743 15.7433V15.7447Z" fill="#F8F8F8"/>
<path d="M146.903 6.83541C145.992 6.28885 144.993 6.01489 143.911 6.01489C143.066 6.01489 142.28 6.15872 141.554 6.44775C140.827 6.73678 140.197 7.15458 139.663 7.70113V6.25872H136.704V22.2581H139.663V17.0433C140.004 17.4131 140.4 17.7172 140.853 17.9528C141.305 18.1898 141.78 18.3747 142.277 18.5076C142.774 18.6405 143.311 18.7076 143.891 18.7076C145.003 18.7076 146.011 18.4446 146.916 17.9199C147.821 17.3953 148.536 16.6515 149.062 15.6899C149.588 14.7283 149.851 13.6256 149.851 12.3832C149.851 11.1407 149.588 10.0791 149.062 9.1093C148.536 8.14084 147.816 7.38197 146.905 6.83404L146.903 6.83541ZM146.458 14.2803C146.155 14.8351 145.732 15.268 145.191 15.5789C144.65 15.8899 144.038 16.0447 143.355 16.0447C142.629 16.0447 141.984 15.8967 141.421 15.6009C140.856 15.305 140.424 14.8762 140.119 14.3132C139.815 13.7516 139.663 13.1009 139.663 12.3599C139.663 11.6188 139.818 10.9544 140.13 10.4065C140.442 9.85996 140.875 9.42984 141.432 9.11889C141.988 8.80794 142.629 8.65316 143.355 8.65316C144.038 8.65316 144.649 8.80794 145.191 9.11889C145.732 9.42984 146.155 9.86955 146.458 10.4394C146.762 11.0092 146.914 11.6558 146.914 12.3804C146.914 13.105 146.762 13.7228 146.458 14.2776V14.2803Z" fill="#F8F8F8"/>
<path d="M162.775 8.4108C162.36 7.64233 161.781 7.05058 161.039 6.63552C160.298 6.22184 159.445 6.01362 158.481 6.01362C157.027 6.01362 155.879 6.38348 155.033 7.12318C154.756 7.36563 154.514 7.63138 154.299 7.91904V2.06445H151.34V18.4419H154.299V11.1984C154.355 11.0504 154.417 10.9052 154.488 10.7628C154.807 10.1272 155.248 9.62309 155.812 9.25324C156.375 8.88339 157.005 8.69846 157.703 8.69846C158.623 8.69846 159.308 8.9464 159.759 9.44227C160.211 9.93814 160.438 10.645 160.438 11.5614V18.4406H163.397V11.1176C163.397 10.082 163.189 9.17927 162.773 8.4108H162.775Z" fill="#F8F8F8"/>
<defs>
<clipPath id="clip0_1293_14101">
<rect width="21.0342" height="21.0342" fill="white" transform="translate(0 0.19873)"/>
</clipPath>
<clipPath id="clip1_1293_14101">
<rect width="21.0342" height="21.0342" fill="white" transform="translate(0 0.19873)"/>
</clipPath>
</defs>
</svg>