<svg version="1.1" id="Layer_1" xmlns="http://www.w3.org/2000/svg" xmlns:xlink="http://www.w3.org/1999/xlink" x="0px" y="0px" viewBox="0 0 418.6 106" style="enable-background:new 0 0 418.6 106;" xml:space="preserve">
 <style type="text/css">
  .st0{fill-rule:evenodd;clip-rule:evenodd;fill:#FFFFFF;}
	.st1{fill:#FFFFFF;}
 </style>
 <g>
  <g transform="translate(-154.000000, -16.000000)">
   <g transform="translate(154.000000, 16.000000)">
    <path id="Path" class="st0" d="M149,98.9c-11.8,0-18.2-6-18.2-17.2V48.9h-4.1c-2,0-3.8-0.8-5.2-2.2s-2.1-3.3-2.1-5.2
				c0.1-3.9,3.3-7,7.3-7h4.1v-9.8c0.3-4.4,4-7.7,8.5-7.7c4.4,0,8.1,3.4,8.5,7.7v9.8h6.6c4,0.1,7.1,3.3,7.1,7.2s-3.1,7.1-7.1,7.2
				h-6.6v28.4c0,5,3.2,6.9,5.8,6.9h1.5c4.8,0,7.4,3.1,7.4,7.2S160,98.9,149,98.9z">
    </path>
    <path id="Shape" class="st1" d="M202.1,98.9c-21.1,0-33.8-15.1-33.8-33.1c0-17.8,12.8-33,33.8-33c21.2,0,33.9,15.1,33.9,33
				C236,83.8,223.3,98.9,202.1,98.9z M202.1,47.6c-10.5,0-16.3,8.5-16.3,18.2c0,9.9,5.8,18.4,16.3,18.4c10.5,0,16.4-8.5,16.4-18.4
				C218.5,56.1,212.5,47.6,202.1,47.6z">
    </path>
    <path id="Shape_1_" class="st1" d="M295.5,98.2h-1.3c-1.3,0-7.3-1-7.3-7.3c-4.4,5.1-11.9,8.1-20.3,8.1
				c-10.2,0-22.3-6.8-22.3-20.8c0-14.7,12.1-20.3,22.3-20.3c8.5,0,16,2.7,20.3,7.7V57c0-6.4-5.6-10.5-14-10.5
				c-5.1-0.1-10.1,1.3-14.3,4c-0.9,0.6-2,0.9-3,0.9c-3.5-0.1-6.4-2.9-6.4-6.4c0-1.1,0.3-2.3,0.9-3.3c4-6.2,18.3-8.9,25.7-8.9
				c14.6,0,28,5.7,28,23.8V90C303.7,94.4,300.1,98.1,295.5,98.2z M286.9,74.4c-2.8-3.6-8.1-5.5-13.5-5.5c-6.6,0-12.1,3.3-12.1,9.5
				c0,5.9,5.4,9.3,12.1,9.3c5.4,0,10.7-1.8,13.5-5.5V74.4z">
    </path>
    <path id="Path_1_" class="st0" d="M343.5,98.9c-8.3,0-21.7-2.7-25.7-8.4c-0.8-1-1.2-2.2-1.2-3.5c0.1-3.8,3.2-6.8,7-6.9
				c1.2,0,2.4,0.3,3.4,1c5,2.9,11.7,5.1,17.2,5.1c7.3,0,10.7-2.9,10.7-6.8c0-10.4-38-2-38-26.7c0-10.5,9.4-19.8,26.2-19.8
				c8.3,0,19.7,2.6,23.3,7.7c0.7,0.9,1.1,2.1,1.1,3.2c-0.1,3.5-3.1,6.3-6.6,6.3c-1.1,0-2.2-0.3-3.2-0.8c-4.4-2.5-9.4-3.8-14.5-3.8
				c-6.1,0-10.1,2.7-10.1,6.3c0,9.4,37.9,1.6,37.9,27C371.2,90.2,361.2,98.9,343.5,98.9z">
    </path>
    <path id="Path_2_" class="st0" d="M405.1,98.9c-11.8,0-18.2-6-18.2-17.2V48.9h-4.1c-2,0-3.8-0.8-5.2-2.2
				c-1.4-1.4-2.1-3.3-2.1-5.2c0.1-3.9,3.3-7,7.3-7h4.1v-9.8c0.3-4.4,4-7.7,8.5-7.7c4.4,0,8.1,3.4,8.5,7.7v9.8h6.6
				c4,0.1,7.1,3.3,7.1,7.2s-3.1,7.1-7.1,7.2h-6.6v28.4c0,5,3.2,6.9,5.8,6.9h1.5c4.8,0,7.4,3.1,7.4,7.2S416.1,98.9,405.1,98.9z">
    </path>
    <path id="Shape_2_" class="st1" d="M108.7,73c0.1-7-0.2-13.9-0.9-20.9c-0.5-4.7-2.1-10.7-7.2-11.9c0.7,0.2,1.3,0.1,2-0.1
				c5.9-3.1,5.4-10.7,3.4-16.1c-2.7-7.2-9.2-12.3-15.7-15.6C67.1-3.7,36.2-2.7,13.8,11.1C7.9,14.7,1.2,21.7,4.2,29.6
				c0.8,1.9,2,3.7,3.5,5.2c0.7,0.7,2.2,2.3,2.2,2.3c-3,4.1-5.2,7.7-6.6,12.7C-1,64.6-0.3,74.2,0.9,86.1c0.7,7.4,3.2,18.4,11.7,19.6
				c7,1,14.5-1.3,21.4-2.1c7.7-0.9,15.4-2.3,23.1-2.1c10.9,0.3,21.7,2.9,32.7,3c5.8,0.1,15.4,0.6,17.1-7c1.6-7.2,1.7-14.7,1.7-22.1
				C108.7,74.6,108.7,73.8,108.7,73z M96.2,85.5c-2.7,6.1-10.4,5.4-15.8,5c-8-0.7-15.9-2.6-24-2.9c-7.1-0.2-14.2,1.1-21.1,2.7
				c-5.2,1.1-12.4,4.1-17.1,0.1C13,86,12.1,78.5,12,72.2c0.1-5.7,0.7-11.5,1.7-17.1c0.6-3.5,1.7-6.9,3.1-10.2
				c1.9-4.7,4.6-7.6,4.8-7.4c-1.4-1.4-3.1-2.2-4-4.2c-3.6-7.4,5.3-13.7,10.2-15.9c17-7.6,40.8-6.9,56.9,2.9c5,3,14.7,13.5,5.6,18.7
				c5.6,2.6,7,10.6,7.7,16.3c1,9.1,0.7,18.3-0.9,27.3C96.9,83.6,96.6,84.6,96.2,85.5z">
    </path>
   </g>
  </g>
 </g>
</svg>